<mxfile host="app.diagrams.net" modified="2023-07-26T17:54:44.906Z" agent="Mozilla/5.0 (Windows NT 10.0; Win64; x64) AppleWebKit/537.36 (KHTML, like Gecko) Chrome/114.0.0.0 Safari/537.36" version="21.6.5" etag="XesrGQnjwsn8QdZiJWU4" type="github">
  <diagram name="PÃ¡gina-1" id="ZtzgwEjl2Cv6G8Xilo4Q">
    <mxGraphModel>
      <root>
        <mxCell id="0" />
        <mxCell id="1" parent="0" />
      </root>
    </mxGraphModel>
  </diagram>
</mxfile>
